{"title":"The Big House (1930).avi","uid":5885340,"size":732796096,"categoryP":"video","categoryS":"movies","magnet":"?xt=urn:btih:85f7bcf90a4a39ff2034815048a2333e678086cf&amp;dn=The+Big+House+%281930%29.avi&amp;tr=udp%3A%2F%2Ftracker.openbittorrent.com%3A80&amp;tr=udp%3A%2F%2Fopen.demonii.com%3A1337&amp;tr=udp%3A%2F%2Ftracker.coppersurfer.tk%3A6969&amp;tr=udp%3A%2F%2Fexodus.desync.com%3A6969","seeders":1,"leechers":5,"uploader":null,"files":1,"time":1287038278,"description":"After a manslaughter conviction from drunk driving, nice but foolish Kent is sent to a prison over-crowded and unable to properly deal with it's inmates. There he meets veteran criminals like Morgan and his hardened pal Butch. And the system punishes them all, turning them against each other and bringing out the worst.\n\nChester Morris\t\t\tMorgan\nWallace Beery\t\t\tButch\nLewis Stone\t\t\tWarden\nRobert Montgomery\t\tKent\n\n   Video #0\n      ID : 0\n      Format : MPEG-4 Visual\n      Format profile : Simple@L3\n      Format settings, BVOP : No\n      Format settings, QPel : No\n      Format settings, GMC : No warppoints\n      Format settings, Matrix : Default (H.263)\n      Codec ID : XVID\n      Codec ID/Hint : XviD\n      Duration : 1h 26mn\n      Bit rate : 996 Kbps\n      Width : 720 pixels\n      Height : 480 pixels\n      Display aspect ratio : 1.500\n      Frame rate : 29.970 fps\n      Standard : NTSC\n      Resolution : 24 bits\n      Colorimetry : 4:2:0\n      Scan type : Progressive\n      Bits/(Pixel*Frame) : 0.096\n      Stream size : 616 MiB (88%)\n      Writing library : XviD 1.2.1 (UTC 2008-12-04)\n   Audio #1\n      ID : 1\n      Format : MPEG Audio\n      Format version : Version 1\n      Format profile : Layer 3\n      Codec ID : 55\n      Codec ID/Hint : MP3\n      Duration : 1h 26mn\n      Bit rate mode : Variable\n      Bit rate : 120 Kbps\n      Channel(s) : 2 channels\n      Sampling rate : 48.0 KHz\n      Resolution : 16 bits\n      Stream size : 74.0 MiB (11%)\n      Alignment : Aligned on interleaves\n      Interleave, duration : 24 ms (0.72 video frame)\n      Interleave, preload duration : 513 ms\n","torrent":{"xt":"urn:btih:85f7bcf90a4a39ff2034815048a2333e678086cf","amp;dn":"The+Big+House+%281930%29.avi","amp;tr":["udp%3A%2F%2Ftracker.openbittorrent.com%3A80","udp%3A%2F%2Fopen.demonii.com%3A1337","udp%3A%2F%2Ftracker.coppersurfer.tk%3A6969","udp%3A%2F%2Fexodus.desync.com%3A6969"],"infoHash":"85f7bcf90a4a39ff2034815048a2333e678086cf","infoHashBuffer":{"type":"Buffer","data":[133,247,188,249,10,74,57,255,32,52,129,80,72,162,51,62,103,128,134,207]},"announce":[],"urlList":[]}}